<?xml version="1.0" encoding="UTF-8" standalone="no"?>
<!-- Created with Inkscape (http://www.inkscape.org/) -->

<svg
   width="1920"
   height="1080"
   viewBox="0 0 508 285.75"
   version="1.1"
   id="svg1"
   xml:space="preserve"
   inkscape:version="1.4 (e7c3feb100, 2024-10-09)"
   sodipodi:docname="poti.svg"
   inkscape:export-filename="poti.png"
   inkscape:export-xdpi="96"
   inkscape:export-ydpi="96"
   xmlns:inkscape="http://www.inkscape.org/namespaces/inkscape"
   xmlns:sodipodi="http://sodipodi.sourceforge.net/DTD/sodipodi-0.dtd"
   xmlns="http://www.w3.org/2000/svg"
   xmlns:svg="http://www.w3.org/2000/svg"><sodipodi:namedview
     id="namedview1"
     pagecolor="#ffffff"
     bordercolor="#000000"
     borderopacity="0.25"
     inkscape:showpageshadow="2"
     inkscape:pageopacity="0.0"
     inkscape:pagecheckerboard="0"
     inkscape:deskcolor="#d1d1d1"
     inkscape:document-units="mm"
     inkscape:zoom="0.38796647"
     inkscape:cx="609.58877"
     inkscape:cy="460.09131"
     inkscape:window-width="1920"
     inkscape:window-height="1011"
     inkscape:window-x="0"
     inkscape:window-y="0"
     inkscape:window-maximized="1"
     inkscape:current-layer="layer1"
     inkscape:export-bgcolor="#ffffffff" /><defs
     id="defs1" /><g
     inkscape:label="Ebene 1"
     inkscape:groupmode="layer"
     id="layer1"><g
       id="g1"
       transform="translate(0,-4.4781452)"><g
         id="g4"
         transform="matrix(0.72815868,0,0,0.72815868,-26.018228,37.2005)"
         style="stroke-width:1.52188"><circle
           style="fill:#cad8ed;fill-opacity:1;stroke-width:1.52206;stroke-linecap:round;stroke-linejoin:round"
           id="path1"
           cx="414.3176"
           cy="100.28458"
           r="90" /><path
           id="circle1"
           style="fill:#d35f5f;stroke-width:1.52206;stroke-linecap:round;stroke-linejoin:round"
           d="m 414.31786,35.284668 a 65,65 0 0 0 -65.00016,64.999652 65,65 0 0 0 36.6081,58.36698 l 13.39194,-26.69501 c 0.0248,-0.0495 0.0443,-0.0997 0.0997,-0.0997 h 0.0765 A 35,35 0 0 1 379.3174,100.28436 35,35 0 0 1 414.31784,65.284427 35,35 0 0 1 449.31777,100.28436 35,35 0 0 1 429.28592,131.9 c 0.0114,0.0172 0.0213,0.0359 0.0315,0.0563 l 13.42864,26.76632 a 65,65 0 0 0 36.57141,-58.43829 65,65 0 0 0 -64.99965,-64.999652 z" /></g><path
         id="path2"
         style="fill:#d4aa00;stroke-width:1.1083;stroke-linecap:round;stroke-linejoin:round"
         d="m 245.51718,209.09901 a 7.2815868,7.2815868 0 0 0 -7.28152,7.28152 7.2815868,7.2815868 0 0 0 7.28152,7.28152 7.2815868,7.2815868 0 0 0 7.28152,-7.28152 7.2815868,7.2815868 0 0 0 -7.28152,-7.28152 z m 0,2.91247 a 4.3689521,4.3689521 0 0 1 4.3687,4.36905 4.3689521,4.3689521 0 0 1 -4.3687,4.36907 4.3689521,4.3689521 0 0 1 -4.36906,-4.36907 4.3689521,4.3689521 0 0 1 4.36906,-4.36905 z" /><path
         id="path3"
         style="fill:#d4aa00;stroke-width:1.1083;stroke-linecap:round;stroke-linejoin:round"
         d="m 275.67073,232.0568 a 7.2815868,7.2815868 0 0 0 -7.28152,7.28151 7.2815868,7.2815868 0 0 0 7.28152,7.28153 7.2815868,7.2815868 0 0 0 7.28152,-7.28153 7.2815868,7.2815868 0 0 0 -7.28152,-7.28151 z m 0,2.91245 a 4.3689521,4.3689521 0 0 1 4.36868,4.36906 4.3689521,4.3689521 0 0 1 -4.36868,4.36907 4.3689521,4.3689521 0 0 1 -4.36907,-4.36907 4.3689521,4.3689521 0 0 1 4.36907,-4.36906 z" /><path
         id="path4"
         style="fill:#d4aa00;stroke-width:1.1083;stroke-linecap:round;stroke-linejoin:round"
         d="m 305.82427,209.15095 a 7.2815868,7.2815868 0 0 0 -7.28152,7.28152 7.2815868,7.2815868 0 0 0 7.28152,7.28151 7.2815868,7.2815868 0 0 0 7.28152,-7.28151 7.2815868,7.2815868 0 0 0 -7.28152,-7.28152 z m 0,2.91245 a 4.3689521,4.3689521 0 0 1 4.36868,4.36907 4.3689521,4.3689521 0 0 1 -4.36868,4.36906 4.3689521,4.3689521 0 0 1 -4.36907,-4.36906 4.3689521,4.3689521 0 0 1 4.36907,-4.36907 z" /><path
         id="path6"
         style="fill:#d4aa00;stroke-width:1.1083;stroke-linecap:round;stroke-linejoin:round"
         d="m 275.67072,101.05489 a 7.2815868,7.2815868 0 0 0 -7.28152,7.28151 7.2815868,7.2815868 0 0 0 7.28152,7.28152 7.2815868,7.2815868 0 0 0 7.28152,-7.28152 7.2815868,7.2815868 0 0 0 -7.28152,-7.28151 z m 0,2.91245 a 4.3689521,4.3689521 0 0 1 4.36869,4.36906 4.3689521,4.3689521 0 0 1 -4.36869,4.36907 4.3689521,4.3689521 0 0 1 -4.36906,-4.36907 4.3689521,4.3689521 0 0 1 4.36906,-4.36906 z" /><rect
         style="fill:#d4aa00;stroke-width:1.1083;stroke-linecap:round;stroke-linejoin:round"
         id="rect7"
         width="7.2815871"
         height="122.26377"
         x="272.02994"
         y="112.70549"
         rx="0.11081708"
         ry="0.11081709" /><rect
         style="fill:#d4aa00;stroke-width:1.1083;stroke-linecap:round;stroke-linejoin:round"
         id="rect8"
         width="7.2815871"
         height="47.648304"
         x="302.18347"
         y="164.4151"
         rx="0.11081708"
         ry="0.11081708" /><rect
         style="fill:#d4aa00;stroke-width:1.1083;stroke-linecap:round;stroke-linejoin:round"
         id="rect9"
         width="7.2815871"
         height="47.648304"
         x="241.87639"
         y="164.36317"
         rx="0.11081708"
         ry="0.11081708" /><rect
         style="fill:#d4aa00;stroke-width:1.1083;stroke-linecap:round;stroke-linejoin:round"
         id="rect10"
         width="7.2815866"
         height="29.126347"
         x="288.77887"
         y="16.98427"
         rx="0.11081708"
         ry="0.11081708"
         transform="rotate(25.125341)" /><rect
         style="fill:#d4aa00;stroke-width:1.1083;stroke-linecap:round;stroke-linejoin:round"
         id="rect11"
         width="7.2815866"
         height="29.126347"
         x="-210.37317"
         y="251.13081"
         rx="0.11081708"
         ry="0.11081708"
         transform="matrix(-0.90538109,0.4245999,0.4245999,0.90538109,0,0)" /><path
         id="path13"
         style="fill:#e8bb00;fill-opacity:1;stroke-width:1.1083;stroke-linecap:round;stroke-linejoin:round"
         d="m 275.67072,103.9417 c -2.42004,2e-5 -4.38187,1.96184 -4.38189,4.38188 2e-5,2.42004 1.96185,4.38187 4.38189,4.38189 2.42004,-2e-5 4.38187,-1.96185 4.38189,-4.38189 -3e-5,-2.42004 -1.96185,-4.38186 -4.38189,-4.38188 z"
         sodipodi:nodetypes="ccccc" /><g
         id="g15"
         style="fill:#e8bb00;fill-opacity:1;stroke-width:1.52188"
         transform="matrix(0.72815868,0,0,0.72815868,-28.699601,93.811285)"><g
           id="g16"
           inkscape:transform-center-x="-16.884635"
           inkscape:transform-center-y="-28.261921"
           style="fill:#e8bb00;fill-opacity:1;stroke-width:1.52188"
           transform="rotate(-62.670215,417.72978,19.518888)"><path
             id="rect14"
             style="fill:#e8bb00;fill-opacity:1;stroke-width:1.52188;stroke-linecap:round;stroke-linejoin:round"
             d="m 417.5885,15.947743 h 48.29629 c 0.0554,0 0.1,0.04459 0.1,0.09998 v 7.800045 c 0,0.05539 -0.0446,0.09998 -0.1,0.09998 H 417.5885 c -0.0554,0 -0.1,-0.04459 -0.1,-0.09998 v -3.900023 -3.900022 c 0,-0.05539 0.0446,-0.09998 0.1,-0.09998 z"
             sodipodi:nodetypes="ssssssscss" /><path
             id="rect15"
             style="fill:#e8bb00;fill-opacity:1;stroke-width:1.52188;stroke-linecap:round;stroke-linejoin:round"
             d="m 455.59525,8.9477434 h 21.802 c 0.0548,0 0.099,0.043948 0.099,0.098539 V 30.849204 c 0,0.05459 -0.0442,0.09854 -0.099,0.09854 h -21.802 c -0.0549,0 -0.099,-0.04395 -0.099,-0.09854 V 9.0462824 c 0,-0.054591 0.0442,-0.098539 0.099,-0.098539 z" /></g></g><g
         id="g17"
         transform="matrix(0.72815868,0,0,0.72815868,-28.699599,77.483311)"
         style="stroke-width:1.52188"><rect
           style="fill:#d9d9d9;fill-opacity:1;stroke:none;stroke-width:1.52188;stroke-linecap:round;stroke-linejoin:round;stroke-dasharray:none;stroke-opacity:1"
           id="rect16"
           width="58.587238"
           height="21.700302"
           x="339.00696"
           y="206.87622"
           rx="4.5656428"
           ry="4.5656428" /><text
           xml:space="preserve"
           style="font-size:19.7556px;line-height:1em;font-family:Rubik;-inkscape-font-specification:Rubik;text-align:center;writing-mode:lr-tb;direction:ltr;text-orientation:upright;text-anchor:middle;fill:#010101;fill-opacity:1;stroke:none;stroke-width:1.52188;stroke-linecap:round;stroke-linejoin:round;stroke-dasharray:none;stroke-opacity:1"
           x="368.30057"
           y="224.64084"
           id="text16"><tspan
             sodipodi:role="line"
             id="tspan16"
             style="font-style:normal;font-variant:normal;font-weight:600;font-stretch:normal;font-family:Rubik;-inkscape-font-specification:'Rubik Semi-Bold';fill:#010101;fill-opacity:1;stroke-width:1.52188"
             x="368.30057"
             y="224.64084">GND</tspan></text></g><g
         id="g18"
         transform="matrix(0.72815868,0,0,0.72815868,-32.386563,77.834451)"
         style="stroke-width:1.52188"><rect
           style="fill:#d9d9d9;fill-opacity:1;stroke:none;stroke-width:1.52188;stroke-linecap:round;stroke-linejoin:round;stroke-dasharray:none;stroke-opacity:1"
           id="rect17"
           width="58.587238"
           height="21.700302"
           x="449.41275"
           y="204.94731"
           rx="4.5656428"
           ry="4.5656428" /><text
           xml:space="preserve"
           style="font-size:19.7556px;line-height:1em;font-family:Rubik;-inkscape-font-specification:Rubik;text-align:center;writing-mode:lr-tb;direction:ltr;text-orientation:upright;text-anchor:middle;fill:#010101;fill-opacity:1;stroke:none;stroke-width:1.52188;stroke-linecap:round;stroke-linejoin:round;stroke-dasharray:none;stroke-opacity:1"
           x="478.82367"
           y="222.71193"
           id="text17"><tspan
             sodipodi:role="line"
             id="tspan17"
             style="font-style:normal;font-variant:normal;font-weight:600;font-stretch:normal;font-family:Rubik;-inkscape-font-specification:'Rubik Semi-Bold';fill:#010101;fill-opacity:1;stroke-width:1.52188"
             x="478.82367"
             y="222.71193">VCC</tspan></text></g><g
         id="g19"
         transform="matrix(0.72815868,0,0,0.72815868,7.4894687,99.253943)"
         style="stroke-width:1.52188"><rect
           style="fill:#d9d9d9;fill-opacity:1;stroke:none;stroke-width:1.52188;stroke-linecap:round;stroke-linejoin:round;stroke-dasharray:none;stroke-opacity:1"
           id="rect18"
           width="58.587238"
           height="21.700302"
           x="339.00696"
           y="206.87622"
           rx="4.5656428"
           ry="4.5656428" /><text
           xml:space="preserve"
           style="font-size:19.7556px;line-height:1em;font-family:Rubik;-inkscape-font-specification:Rubik;text-align:center;writing-mode:lr-tb;direction:ltr;text-orientation:upright;text-anchor:middle;fill:#010101;fill-opacity:1;stroke:none;stroke-width:1.52188;stroke-linecap:round;stroke-linejoin:round;stroke-dasharray:none;stroke-opacity:1"
           x="368.30057"
           y="224.64084"
           id="text18"><tspan
             sodipodi:role="line"
             id="tspan18"
             style="font-style:normal;font-variant:normal;font-weight:600;font-stretch:normal;font-family:Rubik;-inkscape-font-specification:'Rubik Semi-Bold';fill:#010101;fill-opacity:1;stroke-width:1.52188"
             x="368.30057"
             y="224.64084">DATA</tspan></text></g><g
         id="g20"
         transform="matrix(0.72815868,0,0,0.72815868,143.90904,-82.899065)"
         style="stroke-width:1.52188"><text
           xml:space="preserve"
           style="font-size:19.7556px;line-height:1em;font-family:Rubik;-inkscape-font-specification:Rubik;text-align:center;writing-mode:lr-tb;direction:ltr;text-orientation:upright;text-anchor:middle;fill:#010101;fill-opacity:1;stroke:none;stroke-width:1.52188;stroke-linecap:round;stroke-linejoin:round;stroke-dasharray:none;stroke-opacity:1"
           x="90.813591"
           y="168.70062"
           id="text20"><tspan
             sodipodi:role="line"
             id="tspan20"
             style="font-style:normal;font-variant:normal;font-weight:normal;font-stretch:normal;font-family:HAck;-inkscape-font-specification:HAck;fill:#010101;fill-opacity:1;stroke-width:1.52188"
             x="90.813591"
             y="168.70062">Gehäuse</tspan></text><text
           xml:space="preserve"
           style="font-size:19.7556px;line-height:1em;font-family:Rubik;-inkscape-font-specification:Rubik;text-align:center;writing-mode:lr-tb;direction:ltr;text-orientation:upright;text-anchor:middle;fill:#010101;fill-opacity:1;stroke:none;stroke-width:1.52188;stroke-linecap:round;stroke-linejoin:round;stroke-dasharray:none;stroke-opacity:1"
           x="345.00232"
           y="207.95848"
           id="text21"><tspan
             sodipodi:role="line"
             id="tspan21"
             style="font-style:normal;font-variant:normal;font-weight:normal;font-stretch:normal;font-family:Hack;-inkscape-font-specification:Hack;fill:#010101;fill-opacity:1;stroke-width:1.52188"
             x="345.00232"
             y="207.95848">Schleifkontakt</tspan></text><text
           xml:space="preserve"
           style="font-size:19.7556px;line-height:1em;font-family:Rubik;-inkscape-font-specification:Rubik;text-align:center;writing-mode:lr-tb;direction:ltr;text-orientation:upright;text-anchor:middle;fill:#010101;fill-opacity:1;stroke:none;stroke-width:1.52188;stroke-linecap:round;stroke-linejoin:round;stroke-dasharray:none;stroke-opacity:1"
           x="-22.840818"
           y="296.32526"
           id="text22"><tspan
             sodipodi:role="line"
             id="tspan22"
             style="font-style:normal;font-variant:normal;font-weight:normal;font-stretch:normal;font-family:Hack;-inkscape-font-specification:Hack;fill:#010101;fill-opacity:1;stroke-width:1.52188"
             x="-22.84082"
             y="296.32526">Widerstandelement</tspan></text><path
           style="fill:none;fill-opacity:1;stroke:#000000;stroke-width:0.76094;stroke-linecap:round;stroke-linejoin:round;stroke-dasharray:none;stroke-opacity:1"
           d="m 139.54121,164.5455 17.43171,28.02288"
           id="path22" /><path
           style="fill:none;fill-opacity:1;stroke:#000000;stroke-width:0.760939;stroke-linecap:round;stroke-linejoin:round;stroke-dasharray:none;stroke-opacity:1"
           d="m 82.40704,289.23823 47.73994,-11.04439"
           id="path23" /><path
           style="fill:none;fill-opacity:1;stroke:#000000;stroke-width:0.760939;stroke-linecap:round;stroke-linejoin:round;stroke-dasharray:none;stroke-opacity:1"
           d="m 258.84738,204.28561 -55.63029,15.24255"
           id="path24" /></g></g></g></svg>
